inDegrees=no
num_controls=7
num_derivatives=13
num_iterations=34
num_multipliers=7
num_parameters=0
num_slacks=7
num_states=26
objective=0.426596
objective_accelerations=0.058318
objective_balance=0.001116
objective_effort=0.015521
objective_height=0.345621
objective_ligament=0.006020
solver_duration=507.283914
status=Solve_Succeeded
success=true
DataType=double
version=3
OpenSimVersion=4.5
endheader
time	/jointset/ground_pelvis/pelvis_tilt/value	/jointset/ground_pelvis/pelvis_tx/value	/jointset/ground_pelvis/pelvis_ty/value	/jointset/hip_l/hip_flexion_l/value	/jointset/hip_l/hip_adduction_l/value	/jointset/hip_l/hip_rotation_l/value	/jointset/back/lumbar_extension/value	/jointset/patellofemoral_l/patellar_flexion_l/value	/jointset/knee_l/knee_flexion_l/value	/jointset/knee_l/knee_adduction_l/value	/jointset/knee_l/knee_rotation_l/value	/jointset/ankle_l/ankle_angle_l/value	/jointset/subtalar_l/subtalar_angle_l/value	/jointset/ground_pelvis/pelvis_tilt/speed	/jointset/ground_pelvis/pelvis_tx/speed	/jointset/ground_pelvis/pelvis_ty/speed	/jointset/hip_l/hip_flexion_l/speed	/jointset/hip_l/hip_adduction_l/speed	/jointset/hip_l/hip_rotation_l/speed	/jointset/back/lumbar_extension/speed	/jointset/patellofemoral_l/patellar_flexion_l/speed	/jointset/knee_l/knee_flexion_l/speed	/jointset/knee_l/knee_adduction_l/speed	/jointset/knee_l/knee_rotation_l/speed	/jointset/ankle_l/ankle_angle_l/speed	/jointset/subtalar_l/subtalar_angle_l/speed	/forceset/tau_hip_flexion_l	/forceset/tau_hip_adduction_l	/forceset/tau_hip_rotation_l	/forceset/tau_knee_flexion_l	/forceset/tau_ankle_angle_l	/forceset/tau_subtalar_angle_l	/forceset/tau_lumbar_extension	lambda_cid13_p0	lambda_cid13_p1	lambda_cid13_p2	lambda_cid13_p3	lambda_cid13_p4	lambda_cid13_p5	lambda_cid14_p0	/jointset/ground_pelvis/pelvis_tilt/accel	/jointset/ground_pelvis/pelvis_tx/accel	/jointset/ground_pelvis/pelvis_ty/accel	/jointset/hip_l/hip_flexion_l/accel	/jointset/hip_l/hip_adduction_l/accel	/jointset/hip_l/hip_rotation_l/accel	/jointset/back/lumbar_extension/accel	/jointset/patellofemoral_l/patellar_flexion_l/accel	/jointset/knee_l/knee_flexion_l/accel	/jointset/knee_l/knee_adduction_l/accel	/jointset/knee_l/knee_rotation_l/accel	/jointset/ankle_l/ankle_angle_l/accel	/jointset/subtalar_l/subtalar_angle_l/accel	gamma_cid13_p0	gamma_cid13_p1	gamma_cid13_p2	gamma_cid13_p3	gamma_cid13_p4	gamma_cid13_p5	gamma_cid14_p0
1	-0.4530249430645238	-0.001611091783830754	0.5945753217200904	1.699922328046653	-0.3476245311660697	0.1443431207140408	-0.4362613827358869	1.507473655919648	1.507473655919715	0.05011617010580203	-0.1743632020501753	0.4348444332613888	0.2472845175450126	-0.1396133339666786	0.004614853122024812	0.04258399037172129	-0.004441646474594733	-0.00360300543086894	-0.0588269695676892	-0.0009681532941141342	-0.1780019887201002	-0.1780019887200887	-0.01546657025478383	-0.001251386184965942	-0.04956422840572788	-0.03561817231802886	-0.2366075411215359	0.08536786616407868	-0.009609734934552191	-0.2949920871704312	-0.01093001798988242	-0.01918729346225883	0.2070332681479975	-39.93561512521948	26.47848132216485	-17.24181618244838	2.345014160798421	-542.5834698346757	-27.63421304872142	-0.0236754746423445	1.42424301794788	0.2792784211295953	2.012894986231592	-6.653492140700438	-0.2649596071405871	-1.562257604269072	-0.04155632000123646	-5.58641218270728	-5.586412182707165	-0.8997532817363719	-0.02737043155150631	-0.8431889816946478	-0.925036900554518	-5.597909825231468e-09	-1.228262279977715e-07	-5.856928729031228e-08	-6.896683965281603e-09	-7.788980276342441e-09	-1.58359933282315e-07	4.942020725339711e-09
1.01	-0.4543506151798799	-0.001550987777326128	0.5951016018695129	1.699546337498292	-0.3476731614550843	0.1436785639967125	-0.4362721641525585	1.50541457679291	1.505414576792914	0.04991562677834858	-0.1743755067218646	0.4343065046827884	0.2468830927245555	-0.1255145131116431	0.007411398592296581	0.06266421327746237	-0.07074680551547025	-0.006109357125937336	-0.07407171936215336	-0.001183193976828372	-0.2338200518884864	-0.2338200518884777	-0.02463701280009362	-0.001191574781287607	-0.05804289571659474	-0.04465100918684939	-0.2370288931419437	0.08534635352792121	-0.009614569772492422	-0.2939642755262865	-0.01141678857770141	-0.01911846272070655	0.2072522467769776	-40.04228006911754	26.40191956551087	-17.1549707771538	2.288439870241816	-542.4191309504967	-27.58067494629592	-0.02369683547087626	1.403687775094989	0.2806571768592702	2.004409635641382	-6.617579487705818	-0.2414052607166261	-1.503692012033599	-0.01073753169556726	-5.580436630492899	-5.580436630493396	-0.9249391776378666	0.02532746560321759	-0.8534252750442735	-0.8900051225887629	-6.336126153754673e-09	-1.593434700843636e-07	-7.647437761638607e-08	-1.489463755349756e-08	-1.181833700623195e-08	-1.941233051529853e-07	4.78859103207545e-09
1.02	-0.4555351018555245	-0.001462755402742122	0.5958284489865715	1.698507585019137	-0.3477464417230577	0.1428619381124564	-0.436284947893881	1.502797130385171	1.502797130385106	0.04962352913818215	-0.1743866791716718	0.4336831454972185	0.2463918199269006	-0.111376246024066	0.01024052673790098	0.08269738389903493	-0.1369940326333305	-0.008533001222072989	-0.0892408029565564	-0.0013686182311034	-0.2896754449204205	-0.2896754449204155	-0.03377743281379761	-0.001024941806579886	-0.0666503497979275	-0.05358776775738589	-0.2374502451623339	0.08532484089179322	-0.009619404610129102	-0.292936463882126	-0.01190355916551702	-0.01904963197910896	0.2074712254059776	-40.15097603484358	26.32254194891558	-17.06405358231597	2.22202417606285	-542.3656634504055	-27.53029499698896	-0.02372012503036354	1.43213226445619	0.2857949561961072	2.003484529397884	-6.641905756097361	-0.2484180873540036	-1.547124364256811	-0.03563303431278464	-5.593878155416871	-5.59387815541693	-0.8937487754152061	-0.006006117345550147	-0.8689463357878497	-0.9058212408976665	-7.083631135097387e-09	-1.961444166917664e-07	-9.322149601609313e-08	-2.301579660981722e-08	-1.57352800029858e-08	-2.276136973679828e-07	4.216517690232136e-09
1.03	-0.4565780700036005	-0.001346028135966085	0.5967552804757927	1.696806945387755	-0.3478436091483377	0.1418940190416005	-0.4362991078193397	1.499621080819924	1.4996210808198	0.04924013751432581	-0.1743958674915436	0.4329729936906915	0.2458115294874147	-0.09721761973586725	0.01311439571024244	0.1026499133535854	-0.2030945449460757	-0.0108935782003109	-0.1043258191653107	-0.001424822400516685	-0.345527241218967	-0.3455272412189548	-0.0429033879678184	-0.0008167062466697316	-0.07540887323769881	-0.06246801098123365	-0.2377730908846589	0.0853172553365652	-0.009605505207523903	-0.2915727018586239	-0.01249055063691298	-0.01895525180986471	0.2076560820870352	-40.26552404987112	26.21555602376841	-16.94870383491153	2.150151415171772	-542.0260111681657	-27.45437866906862	-0.02374993072683801	1.4076911863772	0.2895969547720703	1.988283110793739	-6.588223002196223	-0.2288213535278945	-1.486622910141351	0.0151675626495295	-5.579747055125505	-5.579747055124416	-0.9224125002330346	0.0336044250821172	-0.8836467736603771	-0.8787290886397741	-7.831230898611726e-09	-2.329482582432591e-07	-1.099567983757352e-07	-3.1138212864791e-08	-1.965107592083011e-08	-2.610808959130244e-07	3.640172474423725e-09
